<svg id="visual" viewBox="0 0 900 600" width="900" height="600" xmlns="http://www.w3.org/2000/svg" xmlns:xlink="http://www.w3.org/1999/xlink" version="1.1"><rect width="900" height="600" fill="#F7760E"></rect><g><g transform="translate(729 539)"><path d="M132.7 -127C166.4 -99.1 184.2 -49.5 177.3 -6.9C170.4 35.8 138.9 71.6 105.3 107.5C71.6 143.3 35.8 179.2 -5.8 185C-47.3 190.7 -94.7 166.4 -130 130.5C-165.4 94.7 -188.8 47.3 -185.3 3.5C-181.8 -40.3 -151.3 -80.6 -115.9 -108.4C-80.6 -136.3 -40.3 -151.8 4.6 -156.4C49.5 -161.1 99.1 -154.8 132.7 -127Z" fill="none" stroke="#F2F2F2" stroke-width="20"></path></g><g transform="translate(230 577)"><path d="M77.5 -76.7C98.2 -56.7 111.2 -28.4 111.3 0.1C111.4 28.6 98.6 57.1 77.8 75.3C57.1 93.5 28.6 101.4 -0.3 101.7C-29.3 102.1 -58.5 94.9 -73 76.7C-87.4 58.5 -87.1 29.3 -85 2.1C-82.9 -25 -78.9 -50 -64.4 -69.9C-50 -89.8 -25 -104.7 1.7 -106.4C28.4 -108.1 56.7 -96.6 77.5 -76.7Z" fill="none" stroke="#F2F2F2" stroke-width="20"></path></g><g transform="translate(748 79)"><path d="M65.1 -71.5C82.9 -47.3 94.9 -23.6 97 2.1C99.1 27.8 91.2 55.5 73.4 72.5C55.5 89.6 27.8 95.8 2.8 93C-22.2 90.2 -44.3 78.3 -61.4 61.3C-78.4 44.3 -90.3 22.2 -93.6 -3.3C-97 -28.8 -91.7 -57.6 -74.7 -81.9C-57.6 -106.2 -28.8 -125.9 -2.6 -123.3C23.6 -120.7 47.3 -95.8 65.1 -71.5Z" fill="none" stroke="#F2F2F2" stroke-width="20"></path></g><g transform="translate(63 67)"><path d="M68.3 -75.7C86.8 -49.8 99 -24.9 100.3 1.2C101.5 27.3 91.7 54.7 73.2 73.5C54.7 92.3 27.3 102.6 -2.6 105.2C-32.5 107.8 -65.1 102.7 -81.7 83.9C-98.3 65.1 -98.9 32.5 -95.9 3C-93 -26.6 -86.4 -53.2 -69.8 -79.1C-53.2 -105 -26.6 -130.3 -0.9 -129.4C24.9 -128.6 49.8 -101.6 68.3 -75.7Z" fill="none" stroke="#F2F2F2" stroke-width="20"></path></g></g></svg>