<svg id="visual" viewBox="0 0 900 600" width="900" height="600" xmlns="http://www.w3.org/2000/svg" xmlns:xlink="http://www.w3.org/1999/xlink" version="1.1"><path d="M0 241L30 235C60 229 120 217 180 213C240 209 300 213 360 215C420 217 480 217 540 202C600 187 660 157 720 134C780 111 840 95 870 87L900 79L900 0L870 0C840 0 780 0 720 0C660 0 600 0 540 0C480 0 420 0 360 0C300 0 240 0 180 0C120 0 60 0 30 0L0 0Z" fill="#1663c7"></path><path d="M0 301L30 304C60 307 120 313 180 316C240 319 300 319 360 315C420 311 480 303 540 294C600 285 660 275 720 266C780 257 840 249 870 245L900 241L900 77L870 85C840 93 780 109 720 132C660 155 600 185 540 200C480 215 420 215 360 213C300 211 240 207 180 211C120 215 60 227 30 233L0 239Z" fill="#155cb8"></path><path d="M0 367L30 375C60 383 120 399 180 410C240 421 300 427 360 419C420 411 480 389 540 374C600 359 660 351 720 342C780 333 840 323 870 318L900 313L900 239L870 243C840 247 780 255 720 264C660 273 600 283 540 292C480 301 420 309 360 313C300 317 240 317 180 314C120 311 60 305 30 302L0 299Z" fill="#1456aa"></path><path d="M0 415L30 432C60 449 120 483 180 499C240 515 300 513 360 498C420 483 480 455 540 440C600 425 660 423 720 417C780 411 840 401 870 396L900 391L900 311L870 316C840 321 780 331 720 340C660 349 600 357 540 372C480 387 420 409 360 417C300 425 240 419 180 408C120 397 60 381 30 373L0 365Z" fill="#144f9c"></path><path d="M0 601L30 601C60 601 120 601 180 601C240 601 300 601 360 601C420 601 480 601 540 601C600 601 660 601 720 601C780 601 840 601 870 601L900 601L900 389L870 394C840 399 780 409 720 415C660 421 600 423 540 438C480 453 420 481 360 496C300 511 240 513 180 497C120 481 60 447 30 430L0 413Z" fill="#14498e"></path></svg>