<svg id="visual" viewBox="0 0 900 600" width="900" height="600" xmlns="http://www.w3.org/2000/svg" xmlns:xlink="http://www.w3.org/1999/xlink" version="1.1"><path d="M0 55L37.5 57C75 59 150 63 225 68C300 73 375 79 450 80C525 81 600 77 675 71C750 65 825 57 862.5 53L900 49L900 0L862.5 0C825 0 750 0 675 0C600 0 525 0 450 0C375 0 300 0 225 0C150 0 75 0 37.5 0L0 0Z" fill="#dae9ff"></path><path d="M0 193L37.5 206C75 219 150 245 225 259C300 273 375 275 450 262C525 249 600 221 675 210C750 199 825 205 862.5 208L900 211L900 47L862.5 51C825 55 750 63 675 69C600 75 525 79 450 78C375 77 300 71 225 66C150 61 75 57 37.5 55L0 53Z" fill="#b3d0ff"></path><path d="M0 355L37.5 372C75 389 150 423 225 426C300 429 375 401 450 392C525 383 600 393 675 384C750 375 825 347 862.5 333L900 319L900 209L862.5 206C825 203 750 197 675 208C600 219 525 247 450 260C375 273 300 271 225 257C150 243 75 217 37.5 204L0 191Z" fill="#8cb7ff"></path><path d="M0 433L37.5 446C75 459 150 485 225 483C300 481 375 451 450 443C525 435 600 449 675 437C750 425 825 387 862.5 368L900 349L900 317L862.5 331C825 345 750 373 675 382C600 391 525 381 450 390C375 399 300 427 225 424C150 421 75 387 37.5 370L0 353Z" fill="#669dff"></path><path d="M0 505L37.5 512C75 519 150 533 225 533C300 533 375 519 450 514C525 509 600 513 675 506C750 499 825 481 862.5 472L900 463L900 347L862.5 366C825 385 750 423 675 435C600 447 525 433 450 441C375 449 300 479 225 481C150 483 75 457 37.5 444L0 431Z" fill="#3d82ff"></path><path d="M0 601L37.5 601C75 601 150 601 225 601C300 601 375 601 450 601C525 601 600 601 675 601C750 601 825 601 862.5 601L900 601L900 461L862.5 470C825 479 750 497 675 504C600 511 525 507 450 512C375 517 300 531 225 531C150 531 75 517 37.5 510L0 503Z" fill="#0066ff"></path></svg>