<svg id="visual" viewBox="0 0 900 600" width="900" height="600" xmlns="http://www.w3.org/2000/svg" xmlns:xlink="http://www.w3.org/1999/xlink" version="1.1"><rect x="0" y="0" width="900" height="600" fill="#F2F2F2"></rect><path d="M0 412L37.5 425.2C75 438.3 150 464.7 225 472C300 479.3 375 467.7 450 467.3C525 467 600 478 675 479.7C750 481.3 825 473.7 862.5 469.8L900 466L900 601L862.5 601C825 601 750 601 675 601C600 601 525 601 450 601C375 601 300 601 225 601C150 601 75 601 37.5 601L0 601Z" fill="#FF6307" stroke-linecap="round" stroke-linejoin="miter"></path></svg>