<svg id="visual" viewBox="0 0 900 600" width="900" height="600" xmlns="http://www.w3.org/2000/svg" xmlns:xlink="http://www.w3.org/1999/xlink" version="1.1"><rect x="0" y="0" width="900" height="600" fill="#F2F2F2"></rect><defs><linearGradient id="grad1_0" x1="33.3%" y1="100%" x2="100%" y2="0%"><stop offset="20%" stop-color="#ff6307" stop-opacity="1"></stop><stop offset="80%" stop-color="#ff6307" stop-opacity="1"></stop></linearGradient></defs><defs><linearGradient id="grad1_1" x1="33.3%" y1="100%" x2="100%" y2="0%"><stop offset="20%" stop-color="#ff6307" stop-opacity="1"></stop><stop offset="80%" stop-color="#ff8242" stop-opacity="1"></stop></linearGradient></defs><defs><linearGradient id="grad1_2" x1="33.3%" y1="100%" x2="100%" y2="0%"><stop offset="20%" stop-color="#ff9f6e" stop-opacity="1"></stop><stop offset="80%" stop-color="#ff8242" stop-opacity="1"></stop></linearGradient></defs><defs><linearGradient id="grad1_3" x1="33.3%" y1="100%" x2="100%" y2="0%"><stop offset="20%" stop-color="#ff9f6e" stop-opacity="1"></stop><stop offset="80%" stop-color="#ffbb99" stop-opacity="1"></stop></linearGradient></defs><defs><linearGradient id="grad1_4" x1="33.3%" y1="100%" x2="100%" y2="0%"><stop offset="20%" stop-color="#ffd7c5" stop-opacity="1"></stop><stop offset="80%" stop-color="#ffbb99" stop-opacity="1"></stop></linearGradient></defs><defs><linearGradient id="grad1_5" x1="33.3%" y1="100%" x2="100%" y2="0%"><stop offset="20%" stop-color="#ffd7c5" stop-opacity="1"></stop><stop offset="80%" stop-color="#f2f2f2" stop-opacity="1"></stop></linearGradient></defs><defs><linearGradient id="grad2_0" x1="0%" y1="100%" x2="66.7%" y2="0%"><stop offset="20%" stop-color="#ff6307" stop-opacity="1"></stop><stop offset="80%" stop-color="#ff6307" stop-opacity="1"></stop></linearGradient></defs><defs><linearGradient id="grad2_1" x1="0%" y1="100%" x2="66.7%" y2="0%"><stop offset="20%" stop-color="#ff8242" stop-opacity="1"></stop><stop offset="80%" stop-color="#ff6307" stop-opacity="1"></stop></linearGradient></defs><defs><linearGradient id="grad2_2" x1="0%" y1="100%" x2="66.7%" y2="0%"><stop offset="20%" stop-color="#ff8242" stop-opacity="1"></stop><stop offset="80%" stop-color="#ff9f6e" stop-opacity="1"></stop></linearGradient></defs><defs><linearGradient id="grad2_3" x1="0%" y1="100%" x2="66.7%" y2="0%"><stop offset="20%" stop-color="#ffbb99" stop-opacity="1"></stop><stop offset="80%" stop-color="#ff9f6e" stop-opacity="1"></stop></linearGradient></defs><defs><linearGradient id="grad2_4" x1="0%" y1="100%" x2="66.7%" y2="0%"><stop offset="20%" stop-color="#ffbb99" stop-opacity="1"></stop><stop offset="80%" stop-color="#ffd7c5" stop-opacity="1"></stop></linearGradient></defs><defs><linearGradient id="grad2_5" x1="0%" y1="100%" x2="66.7%" y2="0%"><stop offset="20%" stop-color="#f2f2f2" stop-opacity="1"></stop><stop offset="80%" stop-color="#ffd7c5" stop-opacity="1"></stop></linearGradient></defs><g transform="translate(900, 600)"><path d="M-351.5 0C-328.3 -38.7 -305.1 -77.5 -291 -120.5C-276.9 -163.6 -272 -211.1 -247.5 -247.5C-223 -283.9 -179 -309.3 -134.5 -324.8C-90 -340.3 -45 -345.9 0 -351.5L0 0Z" fill="#f9e4db"></path><path d="M-293 0C-273.6 -32.3 -254.3 -64.5 -242.5 -100.5C-230.8 -136.4 -226.6 -175.9 -206.2 -206.2C-185.8 -236.6 -149.2 -257.7 -112.1 -270.7C-75 -283.6 -37.5 -288.3 0 -293L0 0Z" fill="#ffc9af"></path><path d="M-234.4 0C-218.9 -25.8 -203.4 -51.6 -194 -80.4C-184.6 -109.1 -181.3 -140.7 -165 -165C-148.7 -189.3 -119.4 -206.2 -89.7 -216.5C-60 -226.9 -30 -230.6 0 -234.4L0 0Z" fill="#ffad83"></path><path d="M-175.8 0C-164.2 -19.4 -152.6 -38.7 -145.5 -60.3C-138.5 -81.8 -136 -105.5 -123.7 -123.7C-111.5 -141.9 -89.5 -154.6 -67.3 -162.4C-45 -170.1 -22.5 -173 0 -175.8L0 0Z" fill="#ff9158"></path><path d="M-117.2 0C-109.4 -12.9 -101.7 -25.8 -97 -40.2C-92.3 -54.5 -90.7 -70.4 -82.5 -82.5C-74.3 -94.6 -59.7 -103.1 -44.8 -108.3C-30 -113.4 -15 -115.3 0 -117.2L0 0Z" fill="#ff732a"></path><path d="M-58.6 0C-54.7 -6.5 -50.9 -12.9 -48.5 -20.1C-46.2 -27.3 -45.3 -35.2 -41.2 -41.2C-37.2 -47.3 -29.8 -51.5 -22.4 -54.1C-15 -56.7 -7.5 -57.7 0 -58.6L0 0Z" fill="#ff6307"></path></g><g transform="translate(0, 0)"><path d="M351.5 0C329.2 38 306.8 76 293.8 121.7C280.8 167.4 277.2 220.9 248.6 248.6C219.9 276.3 166.2 278.2 120.5 291C74.9 303.9 37.5 327.7 0 351.5L0 0Z" fill="#f9e4db"></path><path d="M293 0C274.3 31.7 255.6 63.3 244.8 101.4C234 139.5 231 184.1 207.1 207.1C183.3 230.2 138.5 231.8 100.5 242.5C62.4 253.2 31.2 273.1 0 293L0 0Z" fill="#ffc9af"></path><path d="M234.4 0C219.4 25.3 204.5 50.6 195.9 81.1C187.2 111.6 184.8 147.3 165.7 165.7C146.6 184.2 110.8 185.4 80.4 194C50 202.6 25 218.5 0 234.4L0 0Z" fill="#ffad83"></path><path d="M175.8 0C164.6 19 153.4 38 146.9 60.8C140.4 83.7 138.6 110.4 124.3 124.3C110 138.1 83.1 139.1 60.3 145.5C37.5 151.9 18.7 163.9 0 175.8L0 0Z" fill="#ff9158"></path><path d="M117.2 0C109.7 12.7 102.3 25.3 97.9 40.6C93.6 55.8 92.4 73.6 82.9 82.9C73.3 92.1 55.4 92.7 40.2 97C25 101.3 12.5 109.2 0 117.2L0 0Z" fill="#ff732a"></path><path d="M58.6 0C54.9 6.3 51.1 12.7 49 20.3C46.8 27.9 46.2 36.8 41.4 41.4C36.7 46 27.7 46.4 20.1 48.5C12.5 50.6 6.2 54.6 0 58.6L0 0Z" fill="#ff6307"></path></g></svg>